<svg width="40" height="40" viewBox="0 0 40 40" fill="none" xmlns="http://www.w3.org/2000/svg">
<rect width="40" height="40" fill="white"/>
<rect x="9.84375" y="3.99999" width="0.96875" height="0.96875" fill="#0B1E33"/>
<rect x="10.8125" y="3.99999" width="0.96875" height="0.96875" fill="#0B1E33"/>
<rect x="11.7814" y="3.99999" width="0.96875" height="0.96875" fill="#0B1E33"/>
<rect x="12.7499" y="3.99999" width="0.96875" height="0.96875" fill="#0B1E33"/>
<rect x="18.5625" y="3.99999" width="0.96875" height="0.96875" fill="#0B1E33"/>
<rect x="19.5312" y="3.99999" width="0.96875" height="0.96875" fill="#0B1E33"/>
<rect x="20.5" y="3.99999" width="0.96875" height="0.96875" fill="#0B1E33"/>
<rect x="27.2811" y="3.99999" width="0.96875" height="0.96875" fill="#0B1E33"/>
<rect x="28.25" y="3.99999" width="0.96875" height="0.96875" fill="#0B1E33"/>
<rect x="29.2188" y="3.99999" width="0.96875" height="0.96875" fill="#0B1E33"/>
<rect x="7.90613" y="4.96872" width="0.96875" height="0.96875" fill="#0B1E33"/>
<rect x="8.875" y="4.96872" width="0.96875" height="0.96875" fill="#0B1E33"/>
<rect x="9.84375" y="4.96872" width="0.96875" height="0.96875" fill="#0B1E33"/>
<rect x="10.8125" y="4.96872" width="0.96875" height="0.96875" fill="#0B1E33"/>
<rect x="11.7814" y="4.96872" width="0.96875" height="0.96875" fill="#0B1E33"/>
<rect x="12.7499" y="4.96872" width="0.96875" height="0.96875" fill="#0B1E33"/>
<rect x="13.7188" y="4.96872" width="0.96875" height="0.96875" fill="#0B1E33"/>
<rect x="14.6875" y="4.96872" width="0.96875" height="0.96875" fill="#0B1E33"/>
<rect x="18.5625" y="4.96872" width="0.96875" height="0.96875" fill="#0B1E33"/>
<rect x="19.5312" y="4.96872" width="0.96875" height="0.96875" fill="#0B1E33"/>
<rect x="20.5" y="4.96872" width="0.96875" height="0.96875" fill="#0B1E33"/>
<rect x="25.3438" y="4.96872" width="0.96875" height="0.96875" fill="#0B1E33"/>
<rect x="26.3126" y="4.96872" width="0.96875" height="0.96875" fill="#0B1E33"/>
<rect x="27.2811" y="4.96872" width="0.96875" height="0.96875" fill="#0B1E33"/>
<rect x="28.25" y="4.96872" width="0.96875" height="0.96875" fill="#0B1E33"/>
<rect x="29.2188" y="4.96872" width="0.96875" height="0.96875" fill="#0B1E33"/>
<rect x="30.1875" y="4.96872" width="0.96875" height="0.96875" fill="#0B1E33"/>
<rect x="31.1564" y="4.96872" width="0.96875" height="0.96875" fill="#0B1E33"/>
<rect x="32.1249" y="4.96872" width="0.96875" height="0.96875" fill="#0B1E33"/>
<rect x="6.93762" y="5.9375" width="0.96875" height="0.96875" fill="#0B1E33"/>
<rect x="7.90613" y="5.9375" width="0.96875" height="0.96875" fill="#0B1E33"/>
<rect x="8.875" y="5.9375" width="0.96875" height="0.96875" fill="#0B1E33"/>
<rect x="9.84375" y="5.9375" width="0.96875" height="0.96875" fill="#0B1E33"/>
<rect x="10.8125" y="5.9375" width="0.96875" height="0.96875" fill="#0B1E33"/>
<rect x="11.7814" y="5.9375" width="0.96875" height="0.96875" fill="#0B1E33"/>
<rect x="12.7499" y="5.9375" width="0.96875" height="0.96875" fill="#0B1E33"/>
<rect x="13.7188" y="5.9375" width="0.96875" height="0.96875" fill="#0B1E33"/>
<rect x="14.6875" y="5.9375" width="0.96875" height="0.96875" fill="#0B1E33"/>
<rect x="15.6562" y="5.9375" width="0.96875" height="0.96875" fill="#0B1E33"/>
<rect x="19.5312" y="5.9375" width="0.96875" height="0.96875" fill="#0B1E33"/>
<rect x="23.4062" y="5.9375" width="0.96875" height="0.96875" fill="#0B1E33"/>
<rect x="24.375" y="5.9375" width="0.96875" height="0.96875" fill="#0B1E33"/>
<rect x="25.3438" y="5.9375" width="0.96875" height="0.96875" fill="#0B1E33"/>
<rect x="26.3126" y="5.9375" width="0.96875" height="0.96875" fill="#0B1E33"/>
<rect x="27.2811" y="5.9375" width="0.96875" height="0.96875" fill="#0B1E33"/>
<rect x="28.25" y="5.9375" width="0.96875" height="0.96875" fill="#0B1E33"/>
<rect x="29.2188" y="5.9375" width="0.96875" height="0.96875" fill="#0B1E33"/>
<rect x="30.1875" y="5.9375" width="0.96875" height="0.96875" fill="#0B1E33"/>
<rect x="31.1564" y="5.9375" width="0.96875" height="0.96875" fill="#0B1E33"/>
<rect x="32.1249" y="5.9375" width="0.96875" height="0.96875" fill="#0B1E33"/>
<rect x="33.0938" y="5.9375" width="0.96875" height="0.96875" fill="#0B1E33"/>
<rect x="5.96875" y="6.90628" width="0.96875" height="0.96875" fill="#0B1E33"/>
<rect x="6.93762" y="6.90628" width="0.96875" height="0.96875" fill="#0B1E33"/>
<rect x="7.90613" y="6.90628" width="0.96875" height="0.96875" fill="#0B1E33"/>
<rect x="8.875" y="6.90628" width="0.96875" height="0.96875" fill="#0B1E33"/>
<rect x="9.84375" y="6.90628" width="0.96875" height="0.96875" fill="#0B1E33"/>
<rect x="10.8125" y="6.90628" width="0.96875" height="0.96875" fill="#0B1E33"/>
<rect x="11.7814" y="6.90628" width="0.96875" height="0.96875" fill="#0B1E33"/>
<rect x="12.7499" y="6.90628" width="0.96875" height="0.96875" fill="#0B1E33"/>
<rect x="13.7188" y="6.90628" width="0.96875" height="0.96875" fill="#0B1E33"/>
<rect x="14.6875" y="6.90628" width="0.96875" height="0.96875" fill="#0B1E33"/>
<rect x="15.6562" y="6.90628" width="0.96875" height="0.96875" fill="#0B1E33"/>
<rect x="19.5312" y="6.90628" width="0.96875" height="0.96875" fill="#0B1E33"/>
<rect x="24.375" y="6.90628" width="0.96875" height="0.96875" fill="#0B1E33"/>
<rect x="25.3438" y="6.90628" width="0.96875" height="0.96875" fill="#0B1E33"/>
<rect x="26.3126" y="6.90628" width="0.96875" height="0.96875" fill="#0B1E33"/>
<rect x="27.2811" y="6.90628" width="0.96875" height="0.96875" fill="#0B1E33"/>
<rect x="28.25" y="6.90628" width="0.96875" height="0.96875" fill="#0B1E33"/>
<rect x="29.2188" y="6.90628" width="0.96875" height="0.96875" fill="#0B1E33"/>
<rect x="30.1875" y="6.90628" width="0.96875" height="0.96875" fill="#0B1E33"/>
<rect x="31.1564" y="6.90628" width="0.96875" height="0.96875" fill="#0B1E33"/>
<rect x="32.1249" y="6.90628" width="0.96875" height="0.96875" fill="#0B1E33"/>
<rect x="33.0938" y="6.90628" width="0.96875" height="0.96875" fill="#0B1E33"/>
<rect x="34.0625" y="6.90628" width="0.96875" height="0.96875" fill="#0B1E33"/>
<rect x="5" y="7.87502" width="0.96875" height="0.96875" fill="#0B1E33"/>
<rect x="5.96875" y="7.87502" width="0.96875" height="0.96875" fill="#0B1E33"/>
<rect x="6.93762" y="7.87502" width="0.96875" height="0.96875" fill="#0B1E33"/>
<rect x="7.90613" y="7.87502" width="0.96875" height="0.96875" fill="#0B1E33"/>
<rect x="8.875" y="7.87502" width="0.96875" height="0.96875" fill="#0B1E33"/>
<rect x="9.84375" y="7.87502" width="0.96875" height="0.96875" fill="#0B1E33"/>
<rect x="10.8125" y="7.87502" width="0.96875" height="0.96875" fill="#0B1E33"/>
<rect x="11.7814" y="7.87502" width="0.96875" height="0.96875" fill="#0B1E33"/>
<rect x="12.7499" y="7.87502" width="0.96875" height="0.96875" fill="#0B1E33"/>
<rect x="19.5312" y="7.87502" width="0.96875" height="0.96875" fill="#0B1E33"/>
<rect x="26.3126" y="7.87502" width="0.96875" height="0.96875" fill="#0B1E33"/>
<rect x="27.2811" y="7.87502" width="0.96875" height="0.96875" fill="#0B1E33"/>
<rect x="28.25" y="7.87502" width="0.96875" height="0.96875" fill="#0B1E33"/>
<rect x="29.2188" y="7.87502" width="0.96875" height="0.96875" fill="#0B1E33"/>
<rect x="30.1875" y="7.87502" width="0.96875" height="0.96875" fill="#0B1E33"/>
<rect x="31.1564" y="7.87502" width="0.96875" height="0.96875" fill="#0B1E33"/>
<rect x="32.1249" y="7.87502" width="0.96875" height="0.96875" fill="#0B1E33"/>
<rect x="33.0938" y="7.87502" width="0.96875" height="0.96875" fill="#0B1E33"/>
<rect x="34.0625" y="7.87502" width="0.96875" height="0.96875" fill="#0B1E33"/>
<rect x="5" y="8.84374" width="0.96875" height="0.96875" fill="#0B1E33"/>
<rect x="5.96875" y="8.84374" width="0.96875" height="0.96875" fill="#0B1E33"/>
<rect x="6.93762" y="8.84374" width="0.96875" height="0.96875" fill="#0B1E33"/>
<rect x="7.90613" y="8.84374" width="0.96875" height="0.96875" fill="#0B1E33"/>
<rect x="8.875" y="8.84374" width="0.96875" height="0.96875" fill="#0B1E33"/>
<rect x="9.84375" y="8.84374" width="0.96875" height="0.96875" fill="#0B1E33"/>
<rect x="10.8125" y="8.84374" width="0.96875" height="0.96875" fill="#0B1E33"/>
<rect x="15.6562" y="8.84374" width="0.96875" height="0.96875" fill="#0B1E33"/>
<rect x="16.6251" y="8.84374" width="0.96875" height="0.96875" fill="#0B1E33"/>
<rect x="17.5936" y="8.84374" width="0.96875" height="0.96875" fill="#0B1E33"/>
<rect x="18.5625" y="8.84374" width="0.96875" height="0.96875" fill="#0B1E33"/>
<rect x="19.5312" y="8.84374" width="0.96875" height="0.96875" fill="#0B1E33"/>
<rect x="20.5" y="8.84374" width="0.96875" height="0.96875" fill="#0B1E33"/>
<rect x="21.4689" y="8.84374" width="0.96875" height="0.96875" fill="#0B1E33"/>
<rect x="22.4374" y="8.84374" width="0.96875" height="0.96875" fill="#0B1E33"/>
<rect x="23.4062" y="8.84374" width="0.96875" height="0.96875" fill="#0B1E33"/>
<rect x="24.375" y="8.84374" width="0.96875" height="0.96875" fill="#0B1E33"/>
<rect x="28.25" y="8.84374" width="0.96875" height="0.96875" fill="#0B1E33"/>
<rect x="29.2188" y="8.84374" width="0.96875" height="0.96875" fill="#0B1E33"/>
<rect x="30.1875" y="8.84374" width="0.96875" height="0.96875" fill="#0B1E33"/>
<rect x="31.1564" y="8.84374" width="0.96875" height="0.96875" fill="#0B1E33"/>
<rect x="32.1249" y="8.84374" width="0.96875" height="0.96875" fill="#0B1E33"/>
<rect x="33.0938" y="8.84374" width="0.96875" height="0.96875" fill="#0B1E33"/>
<rect x="34.0625" y="8.84374" width="0.96875" height="0.96875" fill="#0B1E33"/>
<rect x="35.0312" y="8.84374" width="0.96875" height="0.96875" fill="#0B1E33"/>
<rect x="5" y="9.81247" width="0.96875" height="0.96875" fill="#0B1E33"/>
<rect x="5.96875" y="9.81247" width="0.96875" height="0.96875" fill="#0B1E33"/>
<rect x="6.93762" y="9.81247" width="0.96875" height="0.96875" fill="#0B1E33"/>
<rect x="7.90613" y="9.81247" width="0.96875" height="0.96875" fill="#0B1E33"/>
<rect x="8.875" y="9.81247" width="0.96875" height="0.96875" fill="#0B1E33"/>
<rect x="9.84375" y="9.81247" width="0.96875" height="0.96875" fill="#0B1E33"/>
<rect x="13.7188" y="9.81247" width="0.96875" height="0.96875" fill="#0B1E33"/>
<rect x="14.6875" y="9.81247" width="0.96875" height="0.96875" fill="#0B1E33"/>
<rect x="15.6562" y="9.81247" width="0.96875" height="0.96875" fill="#0B1E33"/>
<rect x="16.6251" y="9.81247" width="0.96875" height="0.96875" fill="#0B1E33"/>
<rect x="17.5936" y="9.81247" width="0.96875" height="0.96875" fill="#0B1E33"/>
<rect x="18.5625" y="9.81247" width="0.96875" height="0.96875" fill="#0B1E33"/>
<rect x="19.5312" y="9.81247" width="0.96875" height="0.96875" fill="#0B1E33"/>
<rect x="20.5" y="9.81247" width="0.96875" height="0.96875" fill="#0B1E33"/>
<rect x="21.4689" y="9.81247" width="0.96875" height="0.96875" fill="#0B1E33"/>
<rect x="22.4374" y="9.81247" width="0.96875" height="0.96875" fill="#0B1E33"/>
<rect x="23.4062" y="9.81247" width="0.96875" height="0.96875" fill="#0B1E33"/>
<rect x="24.375" y="9.81247" width="0.96875" height="0.96875" fill="#0B1E33"/>
<rect x="25.3438" y="9.81247" width="0.96875" height="0.96875" fill="#0B1E33"/>
<rect x="26.3126" y="9.81247" width="0.96875" height="0.96875" fill="#0B1E33"/>
<rect x="30.1875" y="9.81247" width="0.96875" height="0.96875" fill="#0B1E33"/>
<rect x="31.1564" y="9.81247" width="0.96875" height="0.96875" fill="#0B1E33"/>
<rect x="32.1249" y="9.81247" width="0.96875" height="0.96875" fill="#0B1E33"/>
<rect x="33.0938" y="9.81247" width="0.96875" height="0.96875" fill="#0B1E33"/>
<rect x="34.0625" y="9.81247" width="0.96875" height="0.96875" fill="#0B1E33"/>
<rect x="35.0312" y="9.81247" width="0.96875" height="0.96875" fill="#0B1E33"/>
<rect x="5" y="10.7812" width="0.96875" height="0.96875" fill="#0B1E33"/>
<rect x="5.96875" y="10.7812" width="0.96875" height="0.96875" fill="#0B1E33"/>
<rect x="6.93762" y="10.7812" width="0.96875" height="0.96875" fill="#0B1E33"/>
<rect x="7.90613" y="10.7812" width="0.96875" height="0.96875" fill="#0B1E33"/>
<rect x="8.875" y="10.7812" width="0.96875" height="0.96875" fill="#0B1E33"/>
<rect x="11.7814" y="10.7812" width="0.96875" height="0.96875" fill="#0B1E33"/>
<rect x="12.7499" y="10.7812" width="0.96875" height="0.96875" fill="#0B1E33"/>
<rect x="13.7188" y="10.7812" width="0.96875" height="0.96875" fill="#0B1E33"/>
<rect x="14.6875" y="10.7812" width="0.96875" height="0.96875" fill="#0B1E33"/>
<rect x="15.6562" y="10.7812" width="0.96875" height="0.96875" fill="#0B1E33"/>
<rect x="16.6251" y="10.7812" width="0.96875" height="0.96875" fill="#0B1E33"/>
<rect x="17.5936" y="10.7812" width="0.96875" height="0.96875" fill="#0B1E33"/>
<rect x="18.5625" y="10.7812" width="0.96875" height="0.96875" fill="#0B1E33"/>
<rect x="19.5312" y="10.7812" width="0.96875" height="0.96875" fill="#0B1E33"/>
<rect x="20.5" y="10.7812" width="0.96875" height="0.96875" fill="#0B1E33"/>
<rect x="21.4689" y="10.7812" width="0.96875" height="0.96875" fill="#0B1E33"/>
<rect x="22.4374" y="10.7812" width="0.96875" height="0.96875" fill="#0B1E33"/>
<rect x="23.4062" y="10.7812" width="0.96875" height="0.96875" fill="#0B1E33"/>
<rect x="24.375" y="10.7812" width="0.96875" height="0.96875" fill="#0B1E33"/>
<rect x="25.3438" y="10.7812" width="0.96875" height="0.96875" fill="#0B1E33"/>
<rect x="26.3126" y="10.7812" width="0.96875" height="0.96875" fill="#0B1E33"/>
<rect x="27.2811" y="10.7812" width="0.96875" height="0.96875" fill="#0B1E33"/>
<rect x="31.1564" y="10.7812" width="0.96875" height="0.96875" fill="#0B1E33"/>
<rect x="32.1249" y="10.7812" width="0.96875" height="0.96875" fill="#0B1E33"/>
<rect x="33.0938" y="10.7812" width="0.96875" height="0.96875" fill="#0B1E33"/>
<rect x="34.0625" y="10.7812" width="0.96875" height="0.96875" fill="#0B1E33"/>
<rect x="35.0312" y="10.7812" width="0.96875" height="0.96875" fill="#0B1E33"/>
<rect x="5" y="11.75" width="0.96875" height="0.96875" fill="#0B1E33"/>
<rect x="5.96875" y="11.75" width="0.96875" height="0.96875" fill="#0B1E33"/>
<rect x="6.93762" y="11.75" width="0.96875" height="0.96875" fill="#0B1E33"/>
<rect x="7.90613" y="11.75" width="0.96875" height="0.96875" fill="#0B1E33"/>
<rect x="10.8125" y="11.75" width="0.96875" height="0.96875" fill="#0B1E33"/>
<rect x="11.7814" y="11.75" width="0.96875" height="0.96875" fill="#0B1E33"/>
<rect x="12.7499" y="11.75" width="0.96875" height="0.96875" fill="#0B1E33"/>
<rect x="13.7188" y="11.75" width="0.96875" height="0.96875" fill="#0B1E33"/>
<rect x="14.6875" y="11.75" width="0.96875" height="0.96875" fill="#0B1E33"/>
<rect x="15.6562" y="11.75" width="0.96875" height="0.96875" fill="#0B1E33"/>
<rect x="24.375" y="11.75" width="0.96875" height="0.96875" fill="#0B1E33"/>
<rect x="25.3438" y="11.75" width="0.96875" height="0.96875" fill="#0B1E33"/>
<rect x="26.3126" y="11.75" width="0.96875" height="0.96875" fill="#0B1E33"/>
<rect x="27.2811" y="11.75" width="0.96875" height="0.96875" fill="#0B1E33"/>
<rect x="28.25" y="11.75" width="0.96875" height="0.96875" fill="#0B1E33"/>
<rect x="32.1249" y="11.75" width="0.96875" height="0.96875" fill="#0B1E33"/>
<rect x="33.0938" y="11.75" width="0.96875" height="0.96875" fill="#0B1E33"/>
<rect x="34.0625" y="11.75" width="0.96875" height="0.96875" fill="#0B1E33"/>
<rect x="35.0312" y="11.75" width="0.96875" height="0.96875" fill="#0B1E33"/>
<rect x="5" y="12.7188" width="0.96875" height="0.96875" fill="#0B1E33"/>
<rect x="5.96875" y="12.7188" width="0.96875" height="0.96875" fill="#0B1E33"/>
<rect x="6.93762" y="12.7188" width="0.96875" height="0.96875" fill="#0B1E33"/>
<rect x="9.84375" y="12.7188" width="0.96875" height="0.96875" fill="#0B1E33"/>
<rect x="10.8125" y="12.7188" width="0.96875" height="0.96875" fill="#0B1E33"/>
<rect x="11.7814" y="12.7188" width="0.96875" height="0.96875" fill="#0B1E33"/>
<rect x="12.7499" y="12.7188" width="0.96875" height="0.96875" fill="#0B1E33"/>
<rect x="13.7188" y="12.7188" width="0.96875" height="0.96875" fill="#0B1E33"/>
<rect x="26.3126" y="12.7188" width="0.96875" height="0.96875" fill="#0B1E33"/>
<rect x="27.2811" y="12.7188" width="0.96875" height="0.96875" fill="#0B1E33"/>
<rect x="28.25" y="12.7188" width="0.96875" height="0.96875" fill="#0B1E33"/>
<rect x="29.2188" y="12.7188" width="0.96875" height="0.96875" fill="#0B1E33"/>
<rect x="32.1249" y="12.7188" width="0.96875" height="0.96875" fill="#0B1E33"/>
<rect x="33.0938" y="12.7188" width="0.96875" height="0.96875" fill="#0B1E33"/>
<rect x="34.0625" y="12.7188" width="0.96875" height="0.96875" fill="#0B1E33"/>
<rect x="35.0312" y="12.7188" width="0.96875" height="0.96875" fill="#0B1E33"/>
<rect x="5" y="13.6875" width="0.96875" height="0.96875" fill="#0B1E33"/>
<rect x="5.96875" y="13.6875" width="0.96875" height="0.96875" fill="#0B1E33"/>
<rect x="6.93762" y="13.6875" width="0.96875" height="0.96875" fill="#0B1E33"/>
<rect x="9.84375" y="13.6875" width="0.96875" height="0.96875" fill="#0B1E33"/>
<rect x="10.8125" y="13.6875" width="0.96875" height="0.96875" fill="#0B1E33"/>
<rect x="11.7814" y="13.6875" width="0.96875" height="0.96875" fill="#0B1E33"/>
<rect x="12.7499" y="13.6875" width="0.96875" height="0.96875" fill="#0B1E33"/>
<rect x="19.5312" y="13.6875" width="0.96875" height="0.96875" fill="#0B1E33"/>
<rect x="27.2811" y="13.6875" width="0.96875" height="0.96875" fill="#0B1E33"/>
<rect x="28.25" y="13.6875" width="0.96875" height="0.96875" fill="#0B1E33"/>
<rect x="29.2188" y="13.6875" width="0.96875" height="0.96875" fill="#0B1E33"/>
<rect x="30.1875" y="13.6875" width="0.96875" height="0.96875" fill="#0B1E33"/>
<rect x="33.0938" y="13.6875" width="0.96875" height="0.96875" fill="#0B1E33"/>
<rect x="34.0625" y="13.6875" width="0.96875" height="0.96875" fill="#0B1E33"/>
<rect x="5.96875" y="14.6562" width="0.96875" height="0.96875" fill="#0B1E33"/>
<rect x="8.875" y="14.6562" width="0.96875" height="0.96875" fill="#0B1E33"/>
<rect x="9.84375" y="14.6562" width="0.96875" height="0.96875" fill="#0B1E33"/>
<rect x="10.8125" y="14.6562" width="0.96875" height="0.96875" fill="#0B1E33"/>
<rect x="11.7814" y="14.6562" width="0.96875" height="0.96875" fill="#0B1E33"/>
<rect x="19.5312" y="14.6562" width="0.96875" height="0.96875" fill="#0B1E33"/>
<rect x="20.5" y="14.6562" width="0.96875" height="0.96875" fill="#0B1E33"/>
<rect x="28.25" y="14.6562" width="0.96875" height="0.96875" fill="#0B1E33"/>
<rect x="29.2188" y="14.6562" width="0.96875" height="0.96875" fill="#0B1E33"/>
<rect x="30.1875" y="14.6562" width="0.96875" height="0.96875" fill="#0B1E33"/>
<rect x="31.1564" y="14.6562" width="0.96875" height="0.96875" fill="#0B1E33"/>
<rect x="33.0938" y="14.6562" width="0.96875" height="0.96875" fill="#0B1E33"/>
<rect x="34.0625" y="14.6562" width="0.96875" height="0.96875" fill="#0B1E33"/>
<rect x="8.875" y="15.625" width="0.96875" height="0.96875" fill="#0B1E33"/>
<rect x="9.84375" y="15.625" width="0.96875" height="0.96875" fill="#0B1E33"/>
<rect x="10.8125" y="15.625" width="0.96875" height="0.96875" fill="#0B1E33"/>
<rect x="19.5312" y="15.625" width="0.96875" height="0.96875" fill="#0B1E33"/>
<rect x="20.5" y="15.625" width="0.96875" height="0.96875" fill="#0B1E33"/>
<rect x="28.25" y="15.625" width="0.96875" height="0.96875" fill="#0B1E33"/>
<rect x="29.2188" y="15.625" width="0.96875" height="0.96875" fill="#0B1E33"/>
<rect x="30.1875" y="15.625" width="0.96875" height="0.96875" fill="#0B1E33"/>
<rect x="31.1564" y="15.625" width="0.96875" height="0.96875" fill="#0B1E33"/>
<rect x="7.90613" y="16.5938" width="0.96875" height="0.96875" fill="#0B1E33"/>
<rect x="8.875" y="16.5938" width="0.96875" height="0.96875" fill="#0B1E33"/>
<rect x="9.84375" y="16.5938" width="0.96875" height="0.96875" fill="#0B1E33"/>
<rect x="10.8125" y="16.5938" width="0.96875" height="0.96875" fill="#0B1E33"/>
<rect x="19.5312" y="16.5938" width="0.96875" height="0.96875" fill="#0B1E33"/>
<rect x="20.5" y="16.5938" width="0.96875" height="0.96875" fill="#0B1E33"/>
<rect x="29.2188" y="16.5938" width="0.96875" height="0.96875" fill="#0B1E33"/>
<rect x="30.1875" y="16.5938" width="0.96875" height="0.96875" fill="#0B1E33"/>
<rect x="31.1564" y="16.5938" width="0.96875" height="0.96875" fill="#0B1E33"/>
<rect x="7.90613" y="17.5625" width="0.96875" height="0.96875" fill="#0B1E33"/>
<rect x="8.875" y="17.5625" width="0.96875" height="0.96875" fill="#0B1E33"/>
<rect x="9.84375" y="17.5625" width="0.96875" height="0.96875" fill="#0B1E33"/>
<rect x="19.5312" y="17.5625" width="0.96875" height="0.96875" fill="#0B1E33"/>
<rect x="20.5" y="17.5625" width="0.96875" height="0.96875" fill="#0B1E33"/>
<rect x="29.2188" y="17.5625" width="0.96875" height="0.96875" fill="#0B1E33"/>
<rect x="30.1875" y="17.5625" width="0.96875" height="0.96875" fill="#0B1E33"/>
<rect x="31.1564" y="17.5625" width="0.96875" height="0.96875" fill="#0B1E33"/>
<rect x="32.1249" y="17.5625" width="0.96875" height="0.96875" fill="#0B1E33"/>
<rect x="7.90613" y="18.5312" width="0.96875" height="0.96875" fill="#0B1E33"/>
<rect x="8.875" y="18.5312" width="0.96875" height="0.96875" fill="#0B1E33"/>
<rect x="9.84375" y="18.5312" width="0.96875" height="0.96875" fill="#0B1E33"/>
<rect x="19.5312" y="18.5312" width="0.96875" height="0.96875" fill="#0B1E33"/>
<rect x="20.5" y="18.5312" width="0.96875" height="0.96875" fill="#0B1E33"/>
<rect x="30.1875" y="18.5312" width="0.96875" height="0.96875" fill="#0B1E33"/>
<rect x="31.1564" y="18.5312" width="0.96875" height="0.96875" fill="#0B1E33"/>
<rect x="32.1249" y="18.5312" width="0.96875" height="0.96875" fill="#0B1E33"/>
<rect x="7.90613" y="19.5" width="0.96875" height="0.96875" fill="#0B1E33"/>
<rect x="8.875" y="19.5" width="0.96875" height="0.96875" fill="#0B1E33"/>
<rect x="9.84375" y="19.5" width="0.96875" height="0.96875" fill="#0B1E33"/>
<rect x="19.5312" y="19.5" width="0.96875" height="0.96875" fill="#0B1E33"/>
<rect x="20.5" y="19.5" width="0.96875" height="0.96875" fill="#0B1E33"/>
<rect x="30.1875" y="19.5" width="0.96875" height="0.96875" fill="#0B1E33"/>
<rect x="31.1564" y="19.5" width="0.96875" height="0.96875" fill="#0B1E33"/>
<rect x="32.1249" y="19.5" width="0.96875" height="0.96875" fill="#0B1E33"/>
<rect x="6.93762" y="20.4688" width="0.96875" height="0.96875" fill="#0B1E33"/>
<rect x="7.90613" y="20.4688" width="0.96875" height="0.96875" fill="#0B1E33"/>
<rect x="8.875" y="20.4688" width="0.96875" height="0.96875" fill="#0B1E33"/>
<rect x="9.84375" y="20.4688" width="0.96875" height="0.96875" fill="#0B1E33"/>
<rect x="19.5312" y="20.4688" width="0.96875" height="0.96875" fill="#0B1E33"/>
<rect x="20.5" y="20.4688" width="0.96875" height="0.96875" fill="#0B1E33"/>
<rect x="21.4689" y="20.4688" width="0.96875" height="0.96875" fill="#0B1E33"/>
<rect x="22.4374" y="20.4688" width="0.96875" height="0.96875" fill="#0B1E33"/>
<rect x="23.4062" y="20.4688" width="0.96875" height="0.96875" fill="#0B1E33"/>
<rect x="24.375" y="20.4688" width="0.96875" height="0.96875" fill="#0B1E33"/>
<rect x="30.1875" y="20.4688" width="0.96875" height="0.96875" fill="#0B1E33"/>
<rect x="31.1564" y="20.4688" width="0.96875" height="0.96875" fill="#0B1E33"/>
<rect x="32.1249" y="20.4688" width="0.96875" height="0.96875" fill="#0B1E33"/>
<rect x="6.93762" y="21.4375" width="0.96875" height="0.96875" fill="#0B1E33"/>
<rect x="7.90613" y="21.4375" width="0.96875" height="0.96875" fill="#0B1E33"/>
<rect x="8.875" y="21.4375" width="0.96875" height="0.96875" fill="#0B1E33"/>
<rect x="9.84375" y="21.4375" width="0.96875" height="0.96875" fill="#0B1E33"/>
<rect x="19.5312" y="21.4375" width="0.96875" height="0.96875" fill="#0B1E33"/>
<rect x="20.5" y="21.4375" width="0.96875" height="0.96875" fill="#0B1E33"/>
<rect x="21.4689" y="21.4375" width="0.96875" height="0.96875" fill="#0B1E33"/>
<rect x="22.4374" y="21.4375" width="0.96875" height="0.96875" fill="#0B1E33"/>
<rect x="23.4062" y="21.4375" width="0.96875" height="0.96875" fill="#0B1E33"/>
<rect x="24.375" y="21.4375" width="0.96875" height="0.96875" fill="#0B1E33"/>
<rect x="30.1875" y="21.4375" width="0.96875" height="0.96875" fill="#0B1E33"/>
<rect x="31.1564" y="21.4375" width="0.96875" height="0.96875" fill="#0B1E33"/>
<rect x="32.1249" y="21.4375" width="0.96875" height="0.96875" fill="#0B1E33"/>
<rect x="6.93762" y="22.4063" width="0.96875" height="0.96875" fill="#0B1E33"/>
<rect x="7.90613" y="22.4063" width="0.96875" height="0.96875" fill="#0B1E33"/>
<rect x="8.875" y="22.4063" width="0.96875" height="0.96875" fill="#0B1E33"/>
<rect x="9.84375" y="22.4063" width="0.96875" height="0.96875" fill="#0B1E33"/>
<rect x="30.1875" y="22.4063" width="0.96875" height="0.96875" fill="#0B1E33"/>
<rect x="31.1564" y="22.4063" width="0.96875" height="0.96875" fill="#0B1E33"/>
<rect x="32.1249" y="22.4063" width="0.96875" height="0.96875" fill="#0B1E33"/>
<rect x="7.90613" y="23.375" width="0.96875" height="0.96875" fill="#0B1E33"/>
<rect x="8.875" y="23.375" width="0.96875" height="0.96875" fill="#0B1E33"/>
<rect x="9.84375" y="23.375" width="0.96875" height="0.96875" fill="#0B1E33"/>
<rect x="30.1875" y="23.375" width="0.96875" height="0.96875" fill="#0B1E33"/>
<rect x="31.1564" y="23.375" width="0.96875" height="0.96875" fill="#0B1E33"/>
<rect x="32.1249" y="23.375" width="0.96875" height="0.96875" fill="#0B1E33"/>
<rect x="7.90613" y="24.3437" width="0.96875" height="0.96875" fill="#0B1E33"/>
<rect x="8.875" y="24.3437" width="0.96875" height="0.96875" fill="#0B1E33"/>
<rect x="9.84375" y="24.3437" width="0.96875" height="0.96875" fill="#0B1E33"/>
<rect x="29.2188" y="24.3437" width="0.96875" height="0.96875" fill="#0B1E33"/>
<rect x="30.1875" y="24.3437" width="0.96875" height="0.96875" fill="#0B1E33"/>
<rect x="31.1564" y="24.3437" width="0.96875" height="0.96875" fill="#0B1E33"/>
<rect x="32.1249" y="24.3437" width="0.96875" height="0.96875" fill="#0B1E33"/>
<rect x="7.90613" y="25.3125" width="0.96875" height="0.96875" fill="#0B1E33"/>
<rect x="8.875" y="25.3125" width="0.96875" height="0.96875" fill="#0B1E33"/>
<rect x="9.84375" y="25.3125" width="0.96875" height="0.96875" fill="#0B1E33"/>
<rect x="10.8125" y="25.3125" width="0.96875" height="0.96875" fill="#0B1E33"/>
<rect x="29.2188" y="25.3125" width="0.96875" height="0.96875" fill="#0B1E33"/>
<rect x="30.1875" y="25.3125" width="0.96875" height="0.96875" fill="#0B1E33"/>
<rect x="31.1564" y="25.3125" width="0.96875" height="0.96875" fill="#0B1E33"/>
<rect x="8.875" y="26.2813" width="0.96875" height="0.96875" fill="#0B1E33"/>
<rect x="9.84375" y="26.2813" width="0.96875" height="0.96875" fill="#0B1E33"/>
<rect x="10.8125" y="26.2813" width="0.96875" height="0.96875" fill="#0B1E33"/>
<rect x="28.25" y="26.2813" width="0.96875" height="0.96875" fill="#0B1E33"/>
<rect x="29.2188" y="26.2813" width="0.96875" height="0.96875" fill="#0B1E33"/>
<rect x="30.1875" y="26.2813" width="0.96875" height="0.96875" fill="#0B1E33"/>
<rect x="31.1564" y="26.2813" width="0.96875" height="0.96875" fill="#0B1E33"/>
<rect x="8.875" y="27.25" width="0.96875" height="0.96875" fill="#0B1E33"/>
<rect x="9.84375" y="27.25" width="0.96875" height="0.96875" fill="#0B1E33"/>
<rect x="10.8125" y="27.25" width="0.96875" height="0.96875" fill="#0B1E33"/>
<rect x="11.7814" y="27.25" width="0.96875" height="0.96875" fill="#0B1E33"/>
<rect x="28.25" y="27.25" width="0.96875" height="0.96875" fill="#0B1E33"/>
<rect x="29.2188" y="27.25" width="0.96875" height="0.96875" fill="#0B1E33"/>
<rect x="30.1875" y="27.25" width="0.96875" height="0.96875" fill="#0B1E33"/>
<rect x="9.84375" y="28.2187" width="0.96875" height="0.96875" fill="#0B1E33"/>
<rect x="10.8125" y="28.2187" width="0.96875" height="0.96875" fill="#0B1E33"/>
<rect x="11.7814" y="28.2187" width="0.96875" height="0.96875" fill="#0B1E33"/>
<rect x="12.7499" y="28.2187" width="0.96875" height="0.96875" fill="#0B1E33"/>
<rect x="27.2811" y="28.2187" width="0.96875" height="0.96875" fill="#0B1E33"/>
<rect x="28.25" y="28.2187" width="0.96875" height="0.96875" fill="#0B1E33"/>
<rect x="29.2188" y="28.2187" width="0.96875" height="0.96875" fill="#0B1E33"/>
<rect x="30.1875" y="28.2187" width="0.96875" height="0.96875" fill="#0B1E33"/>
<rect x="10.8125" y="29.1875" width="0.96875" height="0.96875" fill="#0B1E33"/>
<rect x="11.7814" y="29.1875" width="0.96875" height="0.96875" fill="#0B1E33"/>
<rect x="12.7499" y="29.1875" width="0.96875" height="0.96875" fill="#0B1E33"/>
<rect x="13.7188" y="29.1875" width="0.96875" height="0.96875" fill="#0B1E33"/>
<rect x="25.3438" y="29.1875" width="0.96875" height="0.96875" fill="#0B1E33"/>
<rect x="26.3126" y="29.1875" width="0.96875" height="0.96875" fill="#0B1E33"/>
<rect x="27.2811" y="29.1875" width="0.96875" height="0.96875" fill="#0B1E33"/>
<rect x="28.25" y="29.1875" width="0.96875" height="0.96875" fill="#0B1E33"/>
<rect x="29.2188" y="29.1875" width="0.96875" height="0.96875" fill="#0B1E33"/>
<rect x="10.8125" y="30.1562" width="0.96875" height="0.96875" fill="#0B1E33"/>
<rect x="11.7814" y="30.1562" width="0.96875" height="0.96875" fill="#0B1E33"/>
<rect x="12.7499" y="30.1562" width="0.96875" height="0.96875" fill="#0B1E33"/>
<rect x="13.7188" y="30.1562" width="0.96875" height="0.96875" fill="#0B1E33"/>
<rect x="14.6875" y="30.1562" width="0.96875" height="0.96875" fill="#0B1E33"/>
<rect x="15.6562" y="30.1562" width="0.96875" height="0.96875" fill="#0B1E33"/>
<rect x="23.4062" y="30.1562" width="0.96875" height="0.96875" fill="#0B1E33"/>
<rect x="24.375" y="30.1562" width="0.96875" height="0.96875" fill="#0B1E33"/>
<rect x="25.3438" y="30.1562" width="0.96875" height="0.96875" fill="#0B1E33"/>
<rect x="26.3126" y="30.1562" width="0.96875" height="0.96875" fill="#0B1E33"/>
<rect x="27.2811" y="30.1562" width="0.96875" height="0.96875" fill="#0B1E33"/>
<rect x="28.25" y="30.1562" width="0.96875" height="0.96875" fill="#0B1E33"/>
<rect x="12.7499" y="31.125" width="0.96875" height="0.96875" fill="#0B1E33"/>
<rect x="13.7188" y="31.125" width="0.96875" height="0.96875" fill="#0B1E33"/>
<rect x="14.6875" y="31.125" width="0.96875" height="0.96875" fill="#0B1E33"/>
<rect x="15.6562" y="31.125" width="0.96875" height="0.96875" fill="#0B1E33"/>
<rect x="16.6251" y="31.125" width="0.96875" height="0.96875" fill="#0B1E33"/>
<rect x="17.5936" y="31.125" width="0.96875" height="0.96875" fill="#0B1E33"/>
<rect x="18.5625" y="31.125" width="0.96875" height="0.96875" fill="#0B1E33"/>
<rect x="19.5312" y="31.125" width="0.96875" height="0.96875" fill="#0B1E33"/>
<rect x="20.5" y="31.125" width="0.96875" height="0.96875" fill="#0B1E33"/>
<rect x="21.4689" y="31.125" width="0.96875" height="0.96875" fill="#0B1E33"/>
<rect x="22.4374" y="31.125" width="0.96875" height="0.96875" fill="#0B1E33"/>
<rect x="23.4062" y="31.125" width="0.96875" height="0.96875" fill="#0B1E33"/>
<rect x="24.375" y="31.125" width="0.96875" height="0.96875" fill="#0B1E33"/>
<rect x="25.3438" y="31.125" width="0.96875" height="0.96875" fill="#0B1E33"/>
<rect x="26.3126" y="31.125" width="0.96875" height="0.96875" fill="#0B1E33"/>
<rect x="27.2811" y="31.125" width="0.96875" height="0.96875" fill="#0B1E33"/>
<rect x="11.7814" y="32.0938" width="0.96875" height="0.96875" fill="#0B1E33"/>
<rect x="12.7499" y="32.0938" width="0.96875" height="0.96875" fill="#0B1E33"/>
<rect x="13.7188" y="32.0938" width="0.96875" height="0.96875" fill="#0B1E33"/>
<rect x="14.6875" y="32.0938" width="0.96875" height="0.96875" fill="#0B1E33"/>
<rect x="15.6562" y="32.0938" width="0.96875" height="0.96875" fill="#0B1E33"/>
<rect x="16.6251" y="32.0938" width="0.96875" height="0.96875" fill="#0B1E33"/>
<rect x="17.5936" y="32.0938" width="0.96875" height="0.96875" fill="#0B1E33"/>
<rect x="18.5625" y="32.0938" width="0.96875" height="0.96875" fill="#0B1E33"/>
<rect x="19.5312" y="32.0938" width="0.96875" height="0.96875" fill="#0B1E33"/>
<rect x="20.5" y="32.0938" width="0.96875" height="0.96875" fill="#0B1E33"/>
<rect x="21.4689" y="32.0938" width="0.96875" height="0.96875" fill="#0B1E33"/>
<rect x="22.4374" y="32.0938" width="0.96875" height="0.96875" fill="#0B1E33"/>
<rect x="23.4062" y="32.0938" width="0.96875" height="0.96875" fill="#0B1E33"/>
<rect x="24.375" y="32.0938" width="0.96875" height="0.96875" fill="#0B1E33"/>
<rect x="25.3438" y="32.0938" width="0.96875" height="0.96875" fill="#0B1E33"/>
<rect x="26.3126" y="32.0938" width="0.96875" height="0.96875" fill="#0B1E33"/>
<rect x="27.2811" y="32.0938" width="0.96875" height="0.96875" fill="#0B1E33"/>
<rect x="11.7814" y="33.0625" width="0.96875" height="0.96875" fill="#0B1E33"/>
<rect x="12.7499" y="33.0625" width="0.96875" height="0.96875" fill="#0B1E33"/>
<rect x="13.7188" y="33.0625" width="0.96875" height="0.96875" fill="#0B1E33"/>
<rect x="16.6251" y="33.0625" width="0.96875" height="0.96875" fill="#0B1E33"/>
<rect x="17.5936" y="33.0625" width="0.96875" height="0.96875" fill="#0B1E33"/>
<rect x="18.5625" y="33.0625" width="0.96875" height="0.96875" fill="#0B1E33"/>
<rect x="19.5312" y="33.0625" width="0.96875" height="0.96875" fill="#0B1E33"/>
<rect x="20.5" y="33.0625" width="0.96875" height="0.96875" fill="#0B1E33"/>
<rect x="21.4689" y="33.0625" width="0.96875" height="0.96875" fill="#0B1E33"/>
<rect x="22.4374" y="33.0625" width="0.96875" height="0.96875" fill="#0B1E33"/>
<rect x="23.4062" y="33.0625" width="0.96875" height="0.96875" fill="#0B1E33"/>
<rect x="26.3126" y="33.0625" width="0.96875" height="0.96875" fill="#0B1E33"/>
<rect x="27.2811" y="33.0625" width="0.96875" height="0.96875" fill="#0B1E33"/>
<rect x="28.25" y="33.0625" width="0.96875" height="0.96875" fill="#0B1E33"/>
<rect x="11.7814" y="34.0312" width="0.96875" height="0.96875" fill="#0B1E33"/>
<rect x="12.7499" y="34.0312" width="0.96875" height="0.96875" fill="#0B1E33"/>
<rect x="27.2811" y="34.0312" width="0.96875" height="0.96875" fill="#0B1E33"/>
<rect x="28.25" y="34.0312" width="0.96875" height="0.96875" fill="#0B1E33"/>
</svg>
