<svg width="8" height="29" viewBox="0 0 8 29" fill="none" xmlns="http://www.w3.org/2000/svg">
<path d="M0 0H3.625V3.625H0V0Z" fill="#013C58"/>
<path d="M3.625 0H7.25V3.625H3.625V0Z" fill="#013C58"/>
<path d="M0 3.625H3.625V7.25H0V3.625Z" fill="#013C58"/>
<path d="M3.625 3.625H7.25V7.25H3.625V3.625Z" fill="#013C58"/>
<path d="M0 10.875H3.625V14.5H0V10.875Z" fill="#013C58"/>
<path d="M3.625 10.875H7.25V14.5H3.625V10.875Z" fill="#013C58"/>
<path d="M0 14.5H3.625V18.125H0V14.5Z" fill="#013C58"/>
<path d="M3.625 14.5H7.25V18.125H3.625V14.5Z" fill="#013C58"/>
<path d="M0 21.75H3.625V25.375H0V21.75Z" fill="#013C58"/>
<path d="M3.625 21.75H7.25V25.375H3.625V21.75Z" fill="#013C58"/>
<path d="M0 25.375H3.625V29H0V25.375Z" fill="#013C58"/>
<path d="M3.625 25.375H7.25V29H3.625V25.375Z" fill="#013C58"/>
</svg>
