<svg xmlns="http://www.w3.org/2000/svg" width="40" height="40" fill="none" viewBox="0 0 40 40"><path fill="#fff" d="M0 0h40v40H0z"/><path fill="#0b1e33" d="M9.844 4h.969v.969h-.969zM10.813 4h.969v.969h-.969z"/><path fill="#0b1e33" d="M11.781 4h.969v.969h-.969zM12.75 4h.969v.969h-.969zM18.563 4h.969v.969h-.969z"/><path fill="#0b1e33" d="M19.531 4h.969v.969h-.969zM20.5 4h.969v.969H20.5zM27.281 4h.969v.969h-.969zM28.25 4h.969v.969h-.969zM29.219 4h.969v.969h-.969zM7.906 4.969h.969v.969h-.969zM8.875 4.969h.969v.969h-.969zM9.844 4.969h.969v.969h-.969zM10.813 4.969h.969v.969h-.969z"/><path fill="#0b1e33" d="M11.781 4.969h.969v.969h-.969zM12.75 4.969h.969v.969h-.969zM13.719 4.969h.969v.969h-.969zM14.688 4.969h.969v.969h-.969zM18.563 4.969h.969v.969h-.969z"/><path fill="#0b1e33" d="M19.531 4.969h.969v.969h-.969zM20.5 4.969h.969v.969H20.5zM25.344 4.969h.969v.969h-.969z"/><path fill="#0b1e33" d="M26.313 4.969h.969v.969h-.969z"/><path fill="#0b1e33" d="M27.281 4.969h.969v.969h-.969zM28.25 4.969h.969v.969h-.969zM29.219 4.969h.969v.969h-.969z"/><path fill="#0b1e33" d="M30.188 4.969h.969v.969h-.969z"/><path fill="#0b1e33" d="M31.156 4.969h.969v.969h-.969zM32.125 4.969h.969v.969h-.969zM6.938 5.938h.969v.969h-.969z"/><path fill="#0b1e33" d="M7.906 5.938h.969v.969h-.969zM8.875 5.938h.969v.969h-.969zM9.844 5.938h.969v.969h-.969zM10.813 5.938h.969v.969h-.969z"/><path fill="#0b1e33" d="M11.781 5.938h.969v.969h-.969zM12.75 5.938h.969v.969h-.969zM13.719 5.938h.969v.969h-.969zM14.688 5.938h.969v.969h-.969z"/><path fill="#0b1e33" d="M15.656 5.938h.969v.969h-.969zM19.531 5.938h.969v.969h-.969zM23.406 5.938h.969v.969h-.969zM24.375 5.938h.969v.969h-.969zM25.344 5.938h.969v.969h-.969z"/><path fill="#0b1e33" d="M26.313 5.938h.969v.969h-.969z"/><path fill="#0b1e33" d="M27.281 5.938h.969v.969h-.969zM28.25 5.938h.969v.969h-.969zM29.219 5.938h.969v.969h-.969z"/><path fill="#0b1e33" d="M30.188 5.938h.969v.969h-.969z"/><path fill="#0b1e33" d="M31.156 5.938h.969v.969h-.969zM32.125 5.938h.969v.969h-.969zM33.094 5.938h.969v.969h-.969zM5.969 6.906h.969v.969h-.969z"/><path fill="#0b1e33" d="M6.938 6.906h.969v.969h-.969z"/><path fill="#0b1e33" d="M7.906 6.906h.969v.969h-.969zM8.875 6.906h.969v.969h-.969zM9.844 6.906h.969v.969h-.969zM10.813 6.906h.969v.969h-.969z"/><path fill="#0b1e33" d="M11.781 6.906h.969v.969h-.969zM12.75 6.906h.969v.969h-.969zM13.719 6.906h.969v.969h-.969zM14.688 6.906h.969v.969h-.969z"/><path fill="#0b1e33" d="M15.656 6.906h.969v.969h-.969zM19.531 6.906h.969v.969h-.969zM24.375 6.906h.969v.969h-.969zM25.344 6.906h.969v.969h-.969z"/><path fill="#0b1e33" d="M26.313 6.906h.969v.969h-.969z"/><path fill="#0b1e33" d="M27.281 6.906h.969v.969h-.969zM28.25 6.906h.969v.969h-.969zM29.219 6.906h.969v.969h-.969z"/><path fill="#0b1e33" d="M30.188 6.906h.969v.969h-.969z"/><path fill="#0b1e33" d="M31.156 6.906h.969v.969h-.969zM32.125 6.906h.969v.969h-.969zM33.094 6.906h.969v.969h-.969zM34.063 6.906h.969v.969h-.969zM5 7.875h.969v.969H5zM5.969 7.875h.969v.969h-.969z"/><path fill="#0b1e33" d="M6.938 7.875h.969v.969h-.969z"/><path fill="#0b1e33" d="M7.906 7.875h.969v.969h-.969zM8.875 7.875h.969v.969h-.969zM9.844 7.875h.969v.969h-.969zM10.813 7.875h.969v.969h-.969z"/><path fill="#0b1e33" d="M11.781 7.875h.969v.969h-.969zM12.75 7.875h.969v.969h-.969zM19.531 7.875h.969v.969h-.969zM26.313 7.875h.969v.969h-.969z"/><path fill="#0b1e33" d="M27.281 7.875h.969v.969h-.969zM28.25 7.875h.969v.969h-.969zM29.219 7.875h.969v.969h-.969z"/><path fill="#0b1e33" d="M30.188 7.875h.969v.969h-.969z"/><path fill="#0b1e33" d="M31.156 7.875h.969v.969h-.969zM32.125 7.875h.969v.969h-.969zM33.094 7.875h.969v.969h-.969zM34.063 7.875h.969v.969h-.969zM5 8.844h.969v.969H5zM5.969 8.844h.969v.969h-.969z"/><path fill="#0b1e33" d="M6.938 8.844h.969v.969h-.969z"/><path fill="#0b1e33" d="M7.906 8.844h.969v.969h-.969zM8.875 8.844h.969v.969h-.969zM9.844 8.844h.969v.969h-.969zM10.813 8.844h.969v.969h-.969zM15.656 8.844h.969v.969h-.969zM16.625 8.844h.969v.969h-.969zM17.594 8.844h.969v.969h-.969z"/><path fill="#0b1e33" d="M18.563 8.844h.969v.969h-.969z"/><path fill="#0b1e33" d="M19.531 8.844h.969v.969h-.969zM20.5 8.844h.969v.969H20.5zM21.469 8.844h.969v.969h-.969z"/><path fill="#0b1e33" d="M22.437 8.844h.969v.969h-.969z"/><path fill="#0b1e33" d="M23.406 8.844h.969v.969h-.969zM24.375 8.844h.969v.969h-.969zM28.25 8.844h.969v.969h-.969zM29.219 8.844h.969v.969h-.969z"/><path fill="#0b1e33" d="M30.188 8.844h.969v.969h-.969z"/><path fill="#0b1e33" d="M31.156 8.844h.969v.969h-.969zM32.125 8.844h.969v.969h-.969zM33.094 8.844h.969v.969h-.969zM34.063 8.844h.969v.969h-.969z"/><path fill="#0b1e33" d="M35.031 8.844H36v.969h-.969zM5 9.812h.969v.969H5zM5.969 9.812h.969v.969h-.969z"/><path fill="#0b1e33" d="M6.938 9.812h.969v.969h-.969z"/><path fill="#0b1e33" d="M7.906 9.812h.969v.969h-.969zM8.875 9.812h.969v.969h-.969zM9.844 9.812h.969v.969h-.969zM13.719 9.812h.969v.969h-.969zM14.688 9.812h.969v.969h-.969z"/><path fill="#0b1e33" d="M15.656 9.812h.969v.969h-.969zM16.625 9.812h.969v.969h-.969zM17.594 9.812h.969v.969h-.969z"/><path fill="#0b1e33" d="M18.563 9.812h.969v.969h-.969z"/><path fill="#0b1e33" d="M19.531 9.812h.969v.969h-.969zM20.5 9.812h.969v.969H20.5zM21.469 9.812h.969v.969h-.969z"/><path fill="#0b1e33" d="M22.437 9.812h.969v.969h-.969z"/><path fill="#0b1e33" d="M23.406 9.812h.969v.969h-.969zM24.375 9.812h.969v.969h-.969zM25.344 9.812h.969v.969h-.969z"/><path fill="#0b1e33" d="M26.313 9.812h.969v.969h-.969zM30.188 9.812h.969v.969h-.969z"/><path fill="#0b1e33" d="M31.156 9.812h.969v.969h-.969zM32.125 9.812h.969v.969h-.969zM33.094 9.812h.969v.969h-.969zM34.063 9.812h.969v.969h-.969z"/><path fill="#0b1e33" d="M35.031 9.812H36v.969h-.969zM5 10.781h.969v.969H5zM5.969 10.781h.969v.969h-.969z"/><path fill="#0b1e33" d="M6.938 10.781h.969v.969h-.969z"/><path fill="#0b1e33" d="M7.906 10.781h.969v.969h-.969zM8.875 10.781h.969v.969h-.969zM11.781 10.781h.969v.969h-.969zM12.75 10.781h.969v.969h-.969zM13.719 10.781h.969v.969h-.969zM14.688 10.781h.969v.969h-.969z"/><path fill="#0b1e33" d="M15.656 10.781h.969v.969h-.969zM16.625 10.781h.969v.969h-.969zM17.594 10.781h.969v.969h-.969z"/><path fill="#0b1e33" d="M18.563 10.781h.969v.969h-.969z"/><path fill="#0b1e33" d="M19.531 10.781h.969v.969h-.969zM20.5 10.781h.969v.969H20.5zM21.469 10.781h.969v.969h-.969z"/><path fill="#0b1e33" d="M22.437 10.781h.969v.969h-.969z"/><path fill="#0b1e33" d="M23.406 10.781h.969v.969h-.969zM24.375 10.781h.969v.969h-.969zM25.344 10.781h.969v.969h-.969z"/><path fill="#0b1e33" d="M26.313 10.781h.969v.969h-.969z"/><path fill="#0b1e33" d="M27.281 10.781h.969v.969h-.969zM31.156 10.781h.969v.969h-.969zM32.125 10.781h.969v.969h-.969zM33.094 10.781h.969v.969h-.969zM34.063 10.781h.969v.969h-.969z"/><path fill="#0b1e33" d="M35.031 10.781H36v.969h-.969zM5 11.75h.969v.969H5zM5.969 11.75h.969v.969h-.969z"/><path fill="#0b1e33" d="M6.938 11.75h.969v.969h-.969z"/><path fill="#0b1e33" d="M7.906 11.75h.969v.969h-.969zM10.813 11.75h.969v.969h-.969z"/><path fill="#0b1e33" d="M11.781 11.75h.969v.969h-.969zM12.75 11.75h.969v.969h-.969zM13.719 11.75h.969v.969h-.969zM14.688 11.75h.969v.969h-.969z"/><path fill="#0b1e33" d="M15.656 11.75h.969v.969h-.969zM24.375 11.75h.969v.969h-.969zM25.344 11.75h.969v.969h-.969z"/><path fill="#0b1e33" d="M26.313 11.75h.969v.969h-.969z"/><path fill="#0b1e33" d="M27.281 11.75h.969v.969h-.969zM28.25 11.75h.969v.969h-.969zM32.125 11.75h.969v.969h-.969zM33.094 11.75h.969v.969h-.969zM34.063 11.75h.969v.969h-.969z"/><path fill="#0b1e33" d="M35.031 11.75H36v.969h-.969zM5 12.719h.969v.969H5zM5.969 12.719h.969v.969h-.969z"/><path fill="#0b1e33" d="M6.938 12.719h.969v.969h-.969zM9.844 12.719h.969v.969h-.969zM10.813 12.719h.969v.969h-.969z"/><path fill="#0b1e33" d="M11.781 12.719h.969v.969h-.969zM12.75 12.719h.969v.969h-.969zM13.719 12.719h.969v.969h-.969zM26.313 12.719h.969v.969h-.969z"/><path fill="#0b1e33" d="M27.281 12.719h.969v.969h-.969zM28.25 12.719h.969v.969h-.969zM29.219 12.719h.969v.969h-.969zM32.125 12.719h.969v.969h-.969zM33.094 12.719h.969v.969h-.969zM34.063 12.719h.969v.969h-.969z"/><path fill="#0b1e33" d="M35.031 12.719H36v.969h-.969zM5 13.688h.969v.969H5zM5.969 13.688h.969v.969h-.969z"/><path fill="#0b1e33" d="M6.938 13.688h.969v.969h-.969zM9.844 13.688h.969v.969h-.969zM10.813 13.688h.969v.969h-.969z"/><path fill="#0b1e33" d="M11.781 13.688h.969v.969h-.969zM12.75 13.688h.969v.969h-.969zM19.531 13.688h.969v.969h-.969zM27.281 13.688h.969v.969h-.969zM28.25 13.688h.969v.969h-.969zM29.219 13.688h.969v.969h-.969z"/><path fill="#0b1e33" d="M30.188 13.688h.969v.969h-.969zM33.094 13.688h.969v.969h-.969zM34.063 13.688h.969v.969h-.969zM5.969 14.656h.969v.969h-.969zM8.875 14.656h.969v.969h-.969zM9.844 14.656h.969v.969h-.969zM10.813 14.656h.969v.969h-.969z"/><path fill="#0b1e33" d="M11.781 14.656h.969v.969h-.969zM19.531 14.656h.969v.969h-.969zM20.5 14.656h.969v.969H20.5zM28.25 14.656h.969v.969h-.969zM29.219 14.656h.969v.969h-.969z"/><path fill="#0b1e33" d="M30.188 14.656h.969v.969h-.969z"/><path fill="#0b1e33" d="M31.156 14.656h.969v.969h-.969zM33.094 14.656h.969v.969h-.969zM34.063 14.656h.969v.969h-.969zM8.875 15.625h.969v.969h-.969zM9.844 15.625h.969v.969h-.969zM10.813 15.625h.969v.969h-.969zM19.531 15.625h.969v.969h-.969zM20.5 15.625h.969v.969H20.5zM28.25 15.625h.969v.969h-.969zM29.219 15.625h.969v.969h-.969z"/><path fill="#0b1e33" d="M30.188 15.625h.969v.969h-.969z"/><path fill="#0b1e33" d="M31.156 15.625h.969v.969h-.969zM7.906 16.594h.969v.969h-.969zM8.875 16.594h.969v.969h-.969zM9.844 16.594h.969v.969h-.969zM10.813 16.594h.969v.969h-.969zM19.531 16.594h.969v.969h-.969zM20.5 16.594h.969v.969H20.5zM29.219 16.594h.969v.969h-.969z"/><path fill="#0b1e33" d="M30.188 16.594h.969v.969h-.969z"/><path fill="#0b1e33" d="M31.156 16.594h.969v.969h-.969zM7.906 17.563h.969v.969h-.969zM8.875 17.563h.969v.969h-.969zM9.844 17.563h.969v.969h-.969zM19.531 17.563h.969v.969h-.969zM20.5 17.563h.969v.969H20.5zM29.219 17.563h.969v.969h-.969z"/><path fill="#0b1e33" d="M30.188 17.563h.969v.969h-.969z"/><path fill="#0b1e33" d="M31.156 17.563h.969v.969h-.969zM32.125 17.563h.969v.969h-.969zM7.906 18.531h.969v.969h-.969zM8.875 18.531h.969v.969h-.969zM9.844 18.531h.969v.969h-.969zM19.531 18.531h.969v.969h-.969zM20.5 18.531h.969v.969H20.5z"/><path fill="#0b1e33" d="M30.188 18.531h.969v.969h-.969z"/><path fill="#0b1e33" d="M31.156 18.531h.969v.969h-.969zM32.125 18.531h.969v.969h-.969zM7.906 19.5h.969v.969h-.969zM8.875 19.5h.969v.969h-.969zM9.844 19.5h.969v.969h-.969zM19.531 19.5h.969v.969h-.969zM20.5 19.5h.969v.969H20.5zM30.188 19.5h.969v.969h-.969z"/><path fill="#0b1e33" d="M31.156 19.5h.969v.969h-.969zM32.125 19.5h.969v.969h-.969zM6.938 20.469h.969v.969h-.969z"/><path fill="#0b1e33" d="M7.906 20.469h.969v.969h-.969zM8.875 20.469h.969v.969h-.969zM9.844 20.469h.969v.969h-.969zM19.531 20.469h.969v.969h-.969zM20.5 20.469h.969v.969H20.5zM21.469 20.469h.969v.969h-.969z"/><path fill="#0b1e33" d="M22.437 20.469h.969v.969h-.969z"/><path fill="#0b1e33" d="M23.406 20.469h.969v.969h-.969zM24.375 20.469h.969v.969h-.969zM30.188 20.469h.969v.969h-.969z"/><path fill="#0b1e33" d="M31.156 20.469h.969v.969h-.969zM32.125 20.469h.969v.969h-.969zM6.938 21.438h.969v.969h-.969z"/><path fill="#0b1e33" d="M7.906 21.438h.969v.969h-.969zM8.875 21.438h.969v.969h-.969zM9.844 21.438h.969v.969h-.969zM19.531 21.438h.969v.969h-.969zM20.5 21.438h.969v.969H20.5zM21.469 21.438h.969v.969h-.969z"/><path fill="#0b1e33" d="M22.437 21.438h.969v.969h-.969z"/><path fill="#0b1e33" d="M23.406 21.438h.969v.969h-.969zM24.375 21.438h.969v.969h-.969zM30.188 21.438h.969v.969h-.969z"/><path fill="#0b1e33" d="M31.156 21.438h.969v.969h-.969zM32.125 21.438h.969v.969h-.969zM6.938 22.406h.969v.969h-.969z"/><path fill="#0b1e33" d="M7.906 22.406h.969v.969h-.969zM8.875 22.406h.969v.969h-.969zM9.844 22.406h.969v.969h-.969zM30.188 22.406h.969v.969h-.969z"/><path fill="#0b1e33" d="M31.156 22.406h.969v.969h-.969zM32.125 22.406h.969v.969h-.969zM7.906 23.375h.969v.969h-.969zM8.875 23.375h.969v.969h-.969zM9.844 23.375h.969v.969h-.969zM30.188 23.375h.969v.969h-.969z"/><path fill="#0b1e33" d="M31.156 23.375h.969v.969h-.969zM32.125 23.375h.969v.969h-.969zM7.906 24.344h.969v.969h-.969zM8.875 24.344h.969v.969h-.969zM9.844 24.344h.969v.969h-.969zM29.219 24.344h.969v.969h-.969z"/><path fill="#0b1e33" d="M30.188 24.344h.969v.969h-.969z"/><path fill="#0b1e33" d="M31.156 24.344h.969v.969h-.969zM32.125 24.344h.969v.969h-.969zM7.906 25.313h.969v.969h-.969zM8.875 25.313h.969v.969h-.969zM9.844 25.313h.969v.969h-.969zM10.813 25.313h.969v.969h-.969zM29.219 25.313h.969v.969h-.969z"/><path fill="#0b1e33" d="M30.188 25.313h.969v.969h-.969z"/><path fill="#0b1e33" d="M31.156 25.313h.969v.969h-.969zM8.875 26.281h.969v.969h-.969zM9.844 26.281h.969v.969h-.969zM10.813 26.281h.969v.969h-.969zM28.25 26.281h.969v.969h-.969zM29.219 26.281h.969v.969h-.969z"/><path fill="#0b1e33" d="M30.188 26.281h.969v.969h-.969z"/><path fill="#0b1e33" d="M31.156 26.281h.969v.969h-.969zM8.875 27.25h.969v.969h-.969zM9.844 27.25h.969v.969h-.969zM10.813 27.25h.969v.969h-.969z"/><path fill="#0b1e33" d="M11.781 27.25h.969v.969h-.969zM28.25 27.25h.969v.969h-.969zM29.219 27.25h.969v.969h-.969z"/><path fill="#0b1e33" d="M30.188 27.25h.969v.969h-.969zM9.844 28.219h.969v.969h-.969zM10.813 28.219h.969v.969h-.969z"/><path fill="#0b1e33" d="M11.781 28.219h.969v.969h-.969zM12.75 28.219h.969v.969h-.969zM27.281 28.219h.969v.969h-.969zM28.25 28.219h.969v.969h-.969zM29.219 28.219h.969v.969h-.969z"/><path fill="#0b1e33" d="M30.188 28.219h.969v.969h-.969zM10.813 29.188h.969v.969h-.969z"/><path fill="#0b1e33" d="M11.781 29.188h.969v.969h-.969zM12.75 29.188h.969v.969h-.969zM13.719 29.188h.969v.969h-.969zM25.344 29.188h.969v.969h-.969z"/><path fill="#0b1e33" d="M26.313 29.188h.969v.969h-.969z"/><path fill="#0b1e33" d="M27.281 29.188h.969v.969h-.969zM28.25 29.188h.969v.969h-.969zM29.219 29.188h.969v.969h-.969zM10.813 30.156h.969v.969h-.969z"/><path fill="#0b1e33" d="M11.781 30.156h.969v.969h-.969zM12.75 30.156h.969v.969h-.969zM13.719 30.156h.969v.969h-.969zM14.688 30.156h.969v.969h-.969z"/><path fill="#0b1e33" d="M15.656 30.156h.969v.969h-.969zM23.406 30.156h.969v.969h-.969zM24.375 30.156h.969v.969h-.969zM25.344 30.156h.969v.969h-.969z"/><path fill="#0b1e33" d="M26.313 30.156h.969v.969h-.969z"/><path fill="#0b1e33" d="M27.281 30.156h.969v.969h-.969zM28.25 30.156h.969v.969h-.969zM12.75 31.125h.969v.969h-.969zM13.719 31.125h.969v.969h-.969zM14.688 31.125h.969v.969h-.969z"/><path fill="#0b1e33" d="M15.656 31.125h.969v.969h-.969zM16.625 31.125h.969v.969h-.969zM17.594 31.125h.969v.969h-.969z"/><path fill="#0b1e33" d="M18.563 31.125h.969v.969h-.969z"/><path fill="#0b1e33" d="M19.531 31.125h.969v.969h-.969zM20.5 31.125h.969v.969H20.5zM21.469 31.125h.969v.969h-.969z"/><path fill="#0b1e33" d="M22.437 31.125h.969v.969h-.969z"/><path fill="#0b1e33" d="M23.406 31.125h.969v.969h-.969zM24.375 31.125h.969v.969h-.969zM25.344 31.125h.969v.969h-.969z"/><path fill="#0b1e33" d="M26.313 31.125h.969v.969h-.969z"/><path fill="#0b1e33" d="M27.281 31.125h.969v.969h-.969zM11.781 32.094h.969v.969h-.969zM12.75 32.094h.969v.969h-.969zM13.719 32.094h.969v.969h-.969zM14.688 32.094h.969v.969h-.969z"/><path fill="#0b1e33" d="M15.656 32.094h.969v.969h-.969zM16.625 32.094h.969v.969h-.969zM17.594 32.094h.969v.969h-.969z"/><path fill="#0b1e33" d="M18.563 32.094h.969v.969h-.969z"/><path fill="#0b1e33" d="M19.531 32.094h.969v.969h-.969zM20.5 32.094h.969v.969H20.5zM21.469 32.094h.969v.969h-.969z"/><path fill="#0b1e33" d="M22.437 32.094h.969v.969h-.969z"/><path fill="#0b1e33" d="M23.406 32.094h.969v.969h-.969zM24.375 32.094h.969v.969h-.969zM25.344 32.094h.969v.969h-.969z"/><path fill="#0b1e33" d="M26.313 32.094h.969v.969h-.969z"/><path fill="#0b1e33" d="M27.281 32.094h.969v.969h-.969zM11.781 33.063h.969v.969h-.969zM12.75 33.063h.969v.969h-.969zM13.719 33.063h.969v.969h-.969zM16.625 33.063h.969v.969h-.969zM17.594 33.063h.969v.969h-.969z"/><path fill="#0b1e33" d="M18.563 33.063h.969v.969h-.969z"/><path fill="#0b1e33" d="M19.531 33.063h.969v.969h-.969zM20.5 33.063h.969v.969H20.5zM21.469 33.063h.969v.969h-.969z"/><path fill="#0b1e33" d="M22.437 33.063h.969v.969h-.969z"/><path fill="#0b1e33" d="M23.406 33.063h.969v.969h-.969zM26.313 33.063h.969v.969h-.969z"/><path fill="#0b1e33" d="M27.281 33.063h.969v.969h-.969zM28.25 33.063h.969v.969h-.969zM11.781 34.031h.969V35h-.969zM12.75 34.031h.969V35h-.969z"/><path fill="#0b1e33" d="M27.281 34.031h.969V35h-.969zM28.25 34.031h.969V35h-.969z"/></svg>